<svg width="327" height="57" viewBox="0 0 327 57" fill="none" xmlns="http://www.w3.org/2000/svg">
<g clip-path="url(#clip0_201_2)">
<path d="M316 32.8C317.5 32.8 318.9 32.5 320.2 32C321.5 31.4 322.8 30.6 323.8 29.6C324.8 28.6 325.6 27.4 326.2 26C326.8 24.7 327 23.2 327 21.8C327 18.9 325.8 16.1 323.8 14C321.7 11.9 318.9 10.8 316 10.8C314.5 10.8 313.1 11.1 311.8 11.6C310.5 12.2 309.2 13 308.2 14C307.2 15 306.4 16.2 305.8 17.6C305.2 18.9 305 20.4 305 21.8C305 24.7 306.2 27.5 308.2 29.6C310.2 31.6 313 32.8 316 32.8Z" fill="#505FFF"/>
<path d="M289.1 33.7C287.6 33.7 286.2 34 284.9 34.5C283.6 35.1 282.3 35.9 281.3 36.9C280.3 37.9 279.5 39.1 278.9 40.5C278.3 41.8 278.1 43.3 278.1 44.7C278.1 47.6 279.3 50.4 281.3 52.5C283.4 54.6 286.2 55.7 289.1 55.7C290.6 55.7 292 55.4 293.3 54.9C294.6 54.3 295.9 53.5 296.9 52.5C297.9 51.5 298.7 50.3 299.3 48.9C299.9 47.6 300.1 46.1 300.1 44.7C300.1 41.8 298.9 39 296.9 36.9C294.8 34.9 292 33.7 289.1 33.7Z" fill="#505FFF"/>
<path d="M309.1 34.1C302.1 37.1 298.4 44.1 300.9 49.8C303.3 55.4 311 57.6 318 54.6C325 51.6 328.7 44.6 326.2 38.9C323.8 33.3 316.1 31.1 309.1 34.1Z" fill="#505FFF"/>
<path d="M295.9 32.3C302.9 29.3 306.6 22.3 304.1 16.6C301.7 11 294 8.80002 287 11.8C280 14.8 276.3 21.8 278.8 27.5C281.2 33.2 288.9 35.3 295.9 32.3Z" fill="#505FFF"/>
<path d="M39.6 18.7H32.3V35H8.4L27.2 0.799988H19.2L0.1 35.6L0 35.8V42H32.2V55.7H39.5V41.9H47V35H39.5V18.7H39.6Z" fill="#131E23"/>
<path d="M212.6 9.59998C199.4 9.59998 189.5 19.7 189.5 33.2C189.5 46.6 199.4 56.8 212.6 56.8C215.9 56.9 219.2 56.3 222.2 55C225.2 53.7 227.9 51.8 230.2 49.4C232.2 47.2 233.8 44.7 234.8 41.9L234.9 41.7H227.4V41.8C226.5 43.3 225.3 44.7 224 45.8C220.8 48.5 216.8 49.9 212.6 49.8C204.4 49.8 198 44 197 35.7H235.7V32.9C235.8 29.8 235.2 26.8 234.1 24C233 21.2 231.3 18.6 229.1 16.4C226.9 14.2 224.4 12.6 221.5 11.4C218.7 10.1 215.7 9.59998 212.6 9.59998ZM197.2 29C197.9 25.4 199.8 22.2 202.6 20C205.4 17.7 209 16.6 212.6 16.7C219 16.7 226.5 20.6 227.8 29H197.2Z" fill="#131E23"/>
<path d="M250.5 0.799988H243V10.7H237.1V17.7H243V42C243 51.1 248 56.1 257.1 56.1H267V49.1H257.1C252.7 49.1 250.5 46.7 250.5 42V17.8H267.3V10.8H250.5V0.799988Z" fill="#131E23"/>
<path d="M126.6 29.8C119.1 28.3 111.7 26.7 111.7 22.3C111.7 19.7 114.8 16.4 121.7 16.4C126.4 16.4 129.4 18.1 131.1 19.8C132.1 20.8 132.9 21.9 133.5 23.1H141.2C140.5 20.6 139.3 18.3 137.8 16.3C134.9 12.9 130.2 9.5 121.8 9.5C110.5 9.5 104.6 15.4 104.6 22.2C104.6 30.6 112.1 33.9 119.5 35.5C127 37.1 134.4 38.6 134.4 43C134.4 46.6 131.3 49.8 123.1 49.8C121.2 49.9 119.2 49.6 117.4 48.9C115.6 48.2 114 47.1 112.6 45.7C111.5 44.5 110.6 43.1 110 41.6H102.3C103.1 44.3 104.4 46.9 106.1 49.1C109.1 52.8 114.3 56.6 123.1 56.6C135.3 56.6 141.7 50.3 141.7 43C141.5 34.8 134.1 31.4 126.6 29.8Z" fill="#131E23"/>
<path d="M169.8 29.8C162.3 28.3 154.9 26.7 154.9 22.3C154.9 19.7 158 16.4 164.9 16.4C169.6 16.4 172.6 18.1 174.3 19.8C175.3 20.8 176.1 21.9 176.6 23.1H184.3C183.6 20.6 182.4 18.3 180.9 16.3C178 12.9 173.3 9.5 164.9 9.5C153.6 9.5 147.7 15.4 147.7 22.2C147.7 30.6 155.1 33.9 162.6 35.5C170.1 37.1 177.5 38.6 177.5 43C177.5 46.6 174.4 49.8 166.2 49.8C164.3 49.9 162.3 49.6 160.5 48.9C158.7 48.2 157.1 47.1 155.7 45.7C154.6 44.5 153.7 43.1 153.1 41.6H145.4C146.2 44.3 147.5 46.9 149.2 49.1C152.2 52.8 157.4 56.6 166.2 56.6C178.4 56.6 184.8 50.3 184.8 43C184.7 34.8 177.3 31.4 169.8 29.8Z" fill="#131E23"/>
<path d="M59.5 55.9C60.6 52.3 62.9001 49.2 65.9001 46.9C68.9001 44.7 72.6001 43.4 76.3001 43.4C80.1001 43.4 83.7 44.7 86.7 46.9C89.7 49.1 92 52.3 93.1 55.9H99.8001C98.6001 50.5 95.6001 45.7 91.4001 42.3C87.1001 38.8 81.8001 36.9 76.3001 36.8C70.8001 36.9 65.5001 38.8 61.2001 42.3C56.9001 45.8 54 50.6 52.8 55.9H59.5Z" fill="#131E23"/>
<path d="M59.5 55.9L73.8001 16.3H78.8001L93.2 55.9H101.3L87.3001 17.2C86.4001 15 85 13.1 83 11.7C81 10.3 78.7001 9.59998 76.3001 9.59998C73.9001 9.59998 71.6 10.3 69.6 11.7C67.6 13.1 66.2001 15 65.3001 17.3L51.3 56L59.5 55.9Z" fill="#131E23"/>
</g>
<defs>
<clipPath id="clip0_201_2">
<rect width="327" height="57" fill="white"/>
</clipPath>
</defs>
</svg>
