<svg width="21" height="20" viewBox="0 0 21 20" fill="none" xmlns="http://www.w3.org/2000/svg">
    <path d="M12.7896 7.85906C12.5601 7.62814 12.3055 7.42345 12.0308 7.24872C11.303 6.78269 10.4569 6.53504 9.59265 6.53504C8.39314 6.53281 7.24236 7.0094 6.39566 7.85906L2.28802 11.9699C1.44276 12.8168 0.967677 13.9642 0.96692 15.1608C0.96533 17.6576 2.98812 19.683 5.48501 19.6846C6.68267 19.6888 7.83238 19.2145 8.67878 18.3671L12.0695 14.9764C12.1311 14.9153 12.1655 14.8319 12.165 14.7452C12.164 14.5669 12.0186 14.4231 11.8402 14.4241H11.7111C11.0026 14.4266 10.3005 14.2906 9.64434 14.0237C9.52343 13.974 9.38447 14.002 9.29236 14.0948L6.85425 16.5361C6.09716 17.2932 4.86968 17.2932 4.11259 16.5361C3.3555 15.779 3.3555 14.5515 4.11259 13.7944L8.23639 9.6739C8.99287 8.91836 10.2183 8.91836 10.9748 9.6739C11.4847 10.1537 12.2799 10.1537 12.7897 9.6739C13.009 9.45437 13.142 9.16321 13.1643 8.85365C13.1879 8.48373 13.0514 8.12146 12.7896 7.85906Z" fill="#B7BEC0"/>
    <path d="M19.0194 1.62984C17.2537 -0.135808 14.391 -0.135808 12.6254 1.62984L9.23785 5.01411C9.14483 5.10758 9.118 5.24817 9.17004 5.36934C9.22147 5.49086 9.34166 5.56885 9.47358 5.56631H9.59305C10.3006 5.56503 11.0016 5.70213 11.6566 5.96999C11.7775 6.01975 11.9164 5.99167 12.0085 5.89895L14.4402 3.47053C15.1973 2.71344 16.4248 2.71344 17.1818 3.47053C17.9389 4.22761 17.9389 5.45509 17.1818 6.21218L14.1528 9.238L14.1269 9.26707L13.0677 10.3198C12.3112 11.0754 11.0858 11.0754 10.3293 10.3198C9.81946 9.84001 9.02423 9.84001 8.51444 10.3198C8.2937 10.541 8.16061 10.8347 8.13983 11.1465C8.11622 11.5164 8.25264 11.8787 8.51444 12.1411C8.88822 12.5165 9.32553 12.8226 9.80614 13.0453C9.87396 13.0776 9.94177 13.1034 10.0096 13.1325C10.0774 13.1616 10.1484 13.1842 10.2162 13.21C10.2841 13.2359 10.3551 13.2585 10.4229 13.2778L10.6134 13.3295C10.7426 13.3618 10.8718 13.3876 11.0042 13.4102C11.1637 13.4339 11.3243 13.449 11.4854 13.4554H11.7114H11.7308L11.9245 13.4328C11.9956 13.4296 12.0698 13.4135 12.1538 13.4135H12.2636L12.4864 13.3812L12.5898 13.3618L12.7771 13.3231H12.8126C13.6058 13.1238 14.3301 12.7131 14.9084 12.1347L19.0192 8.02381C20.785 6.25816 20.785 3.39548 19.0194 1.62984Z" fill="#B7BEC0"/>
</svg>
