<svg width="18" height="17" viewBox="0 0 18 17" fill="none" xmlns="http://www.w3.org/2000/svg">
    <path d="M0.755005 8.58366C0.755971 12.6945 3.72689 16.1948 7.76198 16.839V10.9987H5.65499V8.58366H7.76448V6.74524C7.67017 5.87411 7.96589 5.00591 8.57143 4.37612C9.17696 3.74632 10.0296 3.42021 10.898 3.48621C11.5213 3.49634 12.1431 3.5522 12.7583 3.65334V5.7082H11.7085C11.3471 5.66057 10.9838 5.78067 10.7209 6.03466C10.458 6.28865 10.3239 6.64904 10.3565 7.01432V8.58366H12.6578L12.2899 10.9995H10.3565V16.839C14.7204 16.1451 17.7805 12.135 17.3199 7.71382C16.8593 3.29265 13.0393 0.00818564 8.62722 0.239868C4.21519 0.471551 0.755706 4.13827 0.755005 8.58366Z" fill="white"/>
</svg>
