<svg width="34" height="39" viewBox="0 0 34 39" fill="none" xmlns="http://www.w3.org/2000/svg">
    <path d="M33.5767 7.52955H3.07848V0.0531313C3.03506 0.0531313 2.90046 0.0531313 2.67033 0.0226864C2.44021 -0.0077586 2.23613 0.0226864 2.0364 0.0226864C0.6788 0.00818877 0 0.353232 0 1.05782V18.0461C0.375629 18.0953 0.754717 18.1127 1.13326 18.0983C2.43008 18.0983 3.07848 17.7286 3.07848 16.9892V10.6088H30.4983V32.9511H22.6826C22.3016 32.9473 21.9292 33.0645 21.6189 33.286L21.2585 33.4948C21.1306 33.55 21.0097 33.6201 20.8981 33.7035L17.8934 35.4432L14.168 33.2686C13.8403 33.0845 13.4781 32.9705 13.1042 32.9337H3.11756C3.03251 33.3042 3.00179 33.6851 3.02638 34.0645C3.02638 35.3693 3.65597 36.0173 4.90647 36.0173H12.7438L17.876 38.9835L23.0126 36.0347H33.5767C33.5941 35.9912 33.5767 7.52955 33.5767 7.52955Z" fill="#53B51A"/>
    <path d="M8.39308 24.4299C9.80792 24.4299 10.9549 23.281 10.9549 21.8638C10.9549 20.4466 9.80792 19.2977 8.39308 19.2977C6.97825 19.2977 5.8313 20.4466 5.8313 21.8638C5.8313 23.281 6.97825 24.4299 8.39308 24.4299Z" fill="#ffffff"/>
    <path d="M16.6863 24.4299C18.1011 24.4299 19.2481 23.281 19.2481 21.8638C19.2481 20.4466 18.1011 19.2977 16.6863 19.2977C15.2715 19.2977 14.1245 20.4466 14.1245 21.8638C14.1245 23.281 15.2715 24.4299 16.6863 24.4299Z" fill="#ffffff"/>
    <path d="M24.9839 24.4299C26.3987 24.4299 27.5457 23.281 27.5457 21.8638C27.5457 20.4466 26.3987 19.2977 24.9839 19.2977C23.5691 19.2977 22.4221 20.4466 22.4221 21.8638C22.4221 23.281 23.5691 24.4299 24.9839 24.4299Z" fill="#ffffff"/>
</svg>
