<svg width="14" height="14" viewBox="0 0 14 14" fill="none" xmlns="http://www.w3.org/2000/svg">
    <path d="M7.56966 13.1395H4.57131V4.48053H7.56966V5.92368C8.20878 5.14096 9.17799 4.67432 10.2119 4.65154C12.0714 4.66148 13.5717 6.11806 13.5664 7.90802V13.1395H10.568V8.26881C10.4481 7.46254 9.72979 6.86432 8.88368 6.86606C8.51359 6.87733 8.16426 7.03331 7.9163 7.29802C7.66833 7.56272 7.54315 7.91329 7.56966 8.26881V13.1395ZM3.07214 13.1395H0.0737915V4.48053H3.07214V13.1395ZM1.57296 3.03737C0.744994 3.03737 0.0737915 2.39125 0.0737915 1.59422C0.0737915 0.797185 0.744994 0.151062 1.57296 0.151062C2.40093 0.151062 3.07214 0.797185 3.07214 1.59422C3.07214 1.97697 2.91419 2.34404 2.63304 2.61468C2.35189 2.88533 1.97057 3.03737 1.57296 3.03737Z" fill="white"/>
</svg>