<svg width="94" height="84" viewBox="0 0 94 84" fill="none" xmlns="http://www.w3.org/2000/svg">
    <path d="M81.6175 30.0923H37.9222C37.1618 30.0923 36.5453 30.7088 36.5453 31.4692C36.5453 32.2297 37.1618 32.8462 37.9222 32.8462H81.6175C82.378 32.8462 82.9945 32.2297 82.9945 31.4692C82.9945 30.7088 82.378 30.0923 81.6175 30.0923Z" fill="#3F135E"/>
    <path d="M81.6175 40.6183H37.9222C37.1618 40.6183 36.5453 41.2348 36.5453 41.9952C36.5453 42.7557 37.1618 43.3722 37.9222 43.3722H81.6175C82.378 43.3722 82.9945 42.7557 82.9945 41.9952C82.9945 41.2348 82.378 40.6183 81.6175 40.6183Z" fill="#3F135E"/>
    <path d="M81.6175 51.1443H37.9222C37.1618 51.1443 36.5453 51.7608 36.5453 52.5212C36.5453 53.2817 37.1618 53.8982 37.9222 53.8982H81.6175C82.378 53.8982 82.9945 53.2817 82.9945 52.5212C82.9945 51.7608 82.378 51.1443 81.6175 51.1443Z" fill="#3F135E"/>
    <path d="M85.9913 18.05H33.5485C29.1325 18.05 25.5397 21.6425 25.5397 26.0587V59.0353C25.5397 63.4512 29.1323 67.044 33.5485 67.044H70.306C70.699 67.044 71.0642 67.2208 71.308 67.5294L83.1783 82.5571C83.6461 83.1494 84.3287 83.4721 85.0434 83.4721C85.309 83.4721 85.5793 83.4275 85.8444 83.3354C86.8224 82.9957 87.4543 82.1073 87.4543 81.072V66.9072C91.1675 66.2136 94 62.9308 94 59.0353V26.0585C94 21.6425 90.4074 18.05 85.9913 18.05ZM91.2461 59.0353C91.2461 61.8951 88.9194 64.2515 86.0596 64.2879C85.3061 64.2976 84.7003 64.9112 84.7003 65.6648V80.0411L73.4691 65.8224C72.7 64.8484 71.547 64.2899 70.306 64.2899H33.5485C30.651 64.2899 28.2936 61.9326 28.2936 59.0351V26.0585C28.2936 23.1611 30.6508 20.8037 33.5485 20.8037H85.9913C88.8888 20.8037 91.2461 23.1611 91.2461 26.0585V59.0353Z" fill="#3F135E"/>
    <path d="M20.286 40.8178C19.3442 40.9515 18.5007 41.4364 17.911 42.1829L8.45211 54.1579V42.1562C8.45211 41.4026 7.84625 40.789 7.09278 40.7793C4.70037 40.7488 2.75391 38.7776 2.75391 36.385V7.67807C2.75391 5.25409 4.72607 3.28192 7.15006 3.28192H52.803C55.227 3.28192 57.1992 5.25409 57.1992 7.67807V12.9898C57.1992 13.7503 57.8157 14.3668 58.5761 14.3668C59.3366 14.3668 59.9531 13.7503 59.9531 12.9898V7.67807C59.9531 3.73558 56.7455 0.528015 52.803 0.528015H7.15006C3.20757 0.528015 0 3.73558 0 7.67807V36.385C0 39.8121 2.45483 42.7076 5.69838 43.3843V55.5687C5.69838 56.5469 6.29543 57.3864 7.21964 57.7074C7.47025 57.7944 7.72544 57.8366 7.9766 57.8366C8.65167 57.8366 9.297 57.5315 9.73891 56.9721L20.0723 43.8899C20.2214 43.701 20.4349 43.5784 20.6732 43.5444C21.4261 43.4375 21.9499 42.7404 21.8429 41.9875C21.736 41.2346 21.04 40.7104 20.286 40.8178Z" fill="#3F135E"/>
</svg>
