<svg width="23" height="22" viewBox="0 0 23 22" fill="none" xmlns="http://www.w3.org/2000/svg">
    <path d="M11.4981 0.462177C5.76261 0.3491 1.01664 4.8969 0.885681 10.6314C0.900646 13.5505 2.19333 16.3166 4.42313 18.2008V21.2427C4.42313 21.4869 4.62112 21.6849 4.86533 21.6849C4.94819 21.6849 5.0294 21.6616 5.09967 21.6177L7.5644 20.0782C8.82014 20.5584 10.1536 20.8033 11.4981 20.8006C17.2335 20.9137 21.9795 16.3659 22.1105 10.6314C21.9795 4.8969 17.2335 0.3491 11.4981 0.462177Z" fill="#2196F3"/>
    <path d="M18.3326 8.00214C18.2038 7.84442 17.9679 7.79722 17.7789 7.89139L13.2802 10.1337L10.4815 7.93963C10.3099 7.80512 10.0539 7.81406 9.89412 7.96021L4.70332 12.7058C4.53491 12.8607 4.53572 13.1111 4.70519 13.265C4.84068 13.3882 5.04843 13.4155 5.21636 13.3322L9.71503 11.0899L12.5163 13.2847C12.6879 13.4192 12.9439 13.4103 13.1037 13.2642L18.2945 8.51859C18.4458 8.379 18.462 8.15904 18.3326 8.00214Z" fill="#FAFAFA"/>
</svg>
