<svg width="19" height="15" viewBox="0 0 19 15" fill="none" xmlns="http://www.w3.org/2000/svg">
     <path d="M18.4612 2.18055C17.8092 2.46216 17.1144 2.64883 16.3901 2.73946C17.1352 2.30139 17.704 1.613 17.9714 0.783261C17.2766 1.19112 16.5095 1.47921 15.692 1.63998C15.0323 0.948346 14.0921 0.519989 13.0664 0.519989C11.0763 0.519989 9.47419 2.11041 9.47419 4.06014C9.47419 4.34068 9.4983 4.61042 9.55748 4.86722C6.56911 4.72372 3.92484 3.31348 2.14847 1.16522C1.83835 1.695 1.65644 2.30139 1.65644 2.95418C1.65644 4.17991 2.29751 5.26645 3.25309 5.89549C2.67558 5.8847 2.10902 5.71962 1.62904 5.45958C1.62904 5.47037 1.62904 5.4844 1.62904 5.49843C1.62904 7.21833 2.87502 8.64691 4.50892 8.976C4.21633 9.05476 3.89744 9.09253 3.5665 9.09253C3.33637 9.09253 3.10405 9.07958 2.88598 9.0321C3.35171 10.4337 4.6733 11.4641 6.24474 11.4976C5.02178 12.4395 3.46897 13.0071 1.78794 13.0071C1.49316 13.0071 1.21043 12.9941 0.927704 12.9585C2.51997 13.9695 4.40701 14.5468 6.44199 14.5468C13.0565 14.5468 16.6728 9.15187 16.6728 4.47555C16.6728 4.3191 16.6673 4.16804 16.6596 4.01806C17.373 3.51957 17.9725 2.89699 18.4612 2.18055Z" fill="white"/>
</svg>
