<svg width="22" height="23" viewBox="0 0 22 23" fill="none" xmlns="http://www.w3.org/2000/svg">
    <path d="M10.7342 0.136505H10.729C4.92844 0.136505 0.211487 5.05137 0.211487 11.0949C0.211487 13.4921 0.953154 15.7139 2.21425 17.518L0.903184 21.589L4.94685 20.2425C6.61034 21.3904 8.5947 22.0534 10.7342 22.0534C16.5347 22.0534 21.2517 17.1372 21.2517 11.0949C21.2517 5.05274 16.5347 0.136505 10.7342 0.136505Z" fill="#4CAF50"/>
    <path d="M16.6335 14.3891C16.3657 15.0933 15.3025 15.6773 14.4544 15.8479C13.8742 15.9629 13.1164 16.0546 10.5653 15.0701C7.30219 13.8115 5.2008 10.7247 5.03702 10.5244C4.88018 10.3241 3.71844 8.8899 3.71844 7.40656C3.71844 5.92322 4.52763 5.20093 4.85381 4.89082C5.12169 4.63628 5.56445 4.51999 5.98917 4.51999C6.12658 4.51999 6.25011 4.52645 6.36115 4.53162C6.68732 4.54454 6.8511 4.56263 7.06623 5.042C7.33411 5.64283 7.98646 7.12617 8.06419 7.27864C8.1433 7.43111 8.22242 7.63785 8.11138 7.83812C8.00728 8.04486 7.91567 8.1366 7.75189 8.31233C7.58811 8.48805 7.43266 8.62243 7.26888 8.81108C7.11898 8.97518 6.94965 9.15091 7.13841 9.45455C7.32717 9.75174 7.97952 10.7428 8.94 11.5387C10.1795 12.5659 11.1843 12.8941 11.5438 13.0337C11.8117 13.1371 12.1309 13.1125 12.3267 12.9187C12.5751 12.6693 12.8818 12.2558 13.1941 11.8488C13.4162 11.5568 13.6966 11.5206 13.9908 11.624C14.2906 11.7209 15.8771 12.4509 16.2033 12.6021C16.5294 12.7546 16.7446 12.827 16.8237 12.9549C16.9014 13.0828 16.9014 13.6836 16.6335 14.3891Z" fill="#FAFAFA"/>
</svg>
